<svg width="12" height="10" viewBox="0 0 12 10" fill="none" xmlns="http://www.w3.org/2000/svg">
<path d="M0.666504 4.81714C0.666504 4.56401 0.854606 4.35481 1.09866 4.3217L1.1665 4.31714L11.1665 4.31714C11.4426 4.31714 11.6665 4.541 11.6665 4.81714C11.6665 5.07027 11.4784 5.27947 11.2344 5.31257L11.1665 5.31714L1.1665 5.31714C0.890362 5.31714 0.666504 5.09328 0.666504 4.81714Z" fill="#3D3D3D"/>
<path d="M6.78051 1.15514C6.58483 0.960301 6.58415 0.64372 6.77899 0.448038C6.95612 0.270145 7.23386 0.253409 7.42991 0.398224L7.48609 0.446515L11.5194 4.46252C11.6978 4.64017 11.7141 4.91891 11.5681 5.11496L11.5195 5.17111L7.48612 9.18778C7.29046 9.38264 6.97387 9.38198 6.77902 9.18632C6.60187 9.00844 6.58631 8.73063 6.73195 8.53519L6.78048 8.47921L10.4578 4.81663L6.78051 1.15514Z" fill="#3D3D3D"/>
</svg>
